# xmcd
#
# Track frame offsets:
#   150
#   16258
#   37226
#   49297
#   65499
#   83109
#   99946
#   114969
#   129510
#   146062
#   164753
#   181700
#   198266
#   211253
#   234107
#   249432
#   267917
#
# Disc length: 3731 seconds
#
# Revision: 0
# Processed by: cddbd v1.5.2PL0 Copyright (c) Steve Scherf et al.
# Submitted via: uFREEDB ActiveX Control 1.5
#
DISCID=e60e9111
DTITLE=VARIOS - PEROLAS NATIVAS 2
DYEAR=1900
DGENRE=Country
TTITLE0=TEMA DE AMOR CAMPESINO
TTITLE1=MOTIVOS DE CAMPO
TTITLE2=NO COMPASSO DA VANEIRA
TTITLE3=VANEIRA DAS MISSÕES
TTITLE4=O GUASSUPIANO
TTITLE5=AMIGO VELHO E COMPANHEIRO
TTITLE6=FLOR NATIVA
TTITLE7=DOMADOR DE INVERNADA
TTITLE8=HERANÇA DE GAITEIRO
TTITLE9=MINHA PRECE
TTITLE10=DE TROPA, TEMPO E SAUDADE
TTITLE11=PAISAGEM DE AUSÊNCIA
TTITLE12=TODAS AS MANHÃS
TTITLE13=ENTRE A CHUVA E A DISTÂNCIA
TTITLE14=TROPILHAS E GINETES
TTITLE15=MILONGÃO PRA ASSOBIAR DESENCILHADO
TTITLE16=PRECE DO GAÚCHO
EXTD=
EXTT0=
EXTT1=
EXTT2=
EXTT3=
EXTT4=
EXTT5=
EXTT6=
EXTT7=
EXTT8=
EXTT9=
EXTT10=
EXTT11=
EXTT12=
EXTT13=
EXTT14=
EXTT15=
EXTT16=
PLAYORDER=
